<?xml version="1.0" encoding="UTF-8"?>
<svg width="18px" height="18px" viewBox="0 0 18 18" version="1.1" xmlns="http://www.w3.org/2000/svg" xmlns:xlink="http://www.w3.org/1999/xlink">
    <title>6C469378-FD02-43BF-AE0D-94DE240016C8@1.5x</title>
    <defs>
        <filter color-interpolation-filters="auto" id="filter-1">
            <feColorMatrix in="SourceGraphic" type="matrix" values="0 0 0 0 0.549020 0 0 0 0 0.760784 0 0 0 0 0.239216 0 0 0 1.000000 0"></feColorMatrix>
        </filter>
        <path d="M14.299443,9.15 C14.3327763,8.88333333 14.3577763,8.61666667 14.3577763,8.33333333 C14.3577763,8.05 14.3327763,7.78333333 14.299443,7.51666667 L16.0577763,6.14166667 C16.2161097,6.01666667 16.2577763,5.79166667 16.1577763,5.60833333 L14.4911097,2.725 C14.3911097,2.54166667 14.1661097,2.475 13.9827763,2.54166667 L11.9077763,3.375 C11.474443,3.04166667 11.0077763,2.76666667 10.499443,2.55833333 L10.1827763,0.35 C10.1577763,0.15 9.98277634,0 9.774443,0 L6.44110967,0 C6.23277634,0 6.05777634,0.15 6.03277634,0.35 L5.71610967,2.55833333 C5.20777634,2.76666667 4.74110967,3.05 4.30777634,3.375 L2.23277634,2.54166667 C2.04110967,2.46666667 1.824443,2.54166667 1.724443,2.725 L0.0577763366,5.60833333 C-0.0505569967,5.79166667 -0.000556996724,6.01666667 0.157776337,6.14166667 L1.91610967,7.51666667 C1.88277634,7.78333333 1.85777634,8.05833333 1.85777634,8.33333333 C1.85777634,8.60833333 1.88277634,8.88333333 1.91610967,9.15 L0.157776337,10.525 C-0.000556996724,10.65 -0.0422236634,10.875 0.0577763366,11.0583333 L1.724443,13.9416667 C1.824443,14.125 2.049443,14.1916667 2.23277634,14.125 L4.30777634,13.2916667 C4.74110967,13.625 5.20777634,13.9 5.71610967,14.1083333 L6.03277634,16.3166667 C6.05777634,16.5166667 6.23277634,16.6666667 6.44110967,16.6666667 L9.774443,16.6666667 C9.98277634,16.6666667 10.1577763,16.5166667 10.1827763,16.3166667 L10.499443,14.1083333 C11.0077763,13.9 11.474443,13.6166667 11.9077763,13.2916667 L13.9827763,14.125 C14.174443,14.2 14.3911097,14.125 14.4911097,13.9416667 L16.1577763,11.0583333 C16.2577763,10.875 16.2161097,10.65 16.0577763,10.525 L14.299443,9.15 Z M8.10777634,11.25 C6.499443,11.25 5.19110967,9.94166667 5.19110967,8.33333333 C5.19110967,6.725 6.499443,5.41666667 8.10777634,5.41666667 C9.71610967,5.41666667 11.024443,6.725 11.024443,8.33333333 C11.024443,9.94166667 9.71610967,11.25 8.10777634,11.25 Z" id="path-2"></path>
    </defs>
    <g id="Back-Office" stroke="none" stroke-width="1" fill="none" fill-rule="evenodd">
        <g id="Back-Office:-Change-Password" transform="translate(-25.000000, -936.000000)">
            <g id="Menu" transform="translate(-1.000000, -1.000000)">
                <g id="icon/action/supervised_user_circle_24px" transform="translate(0.000000, 922.000000)" filter="url(#filter-1)">
                    <g transform="translate(26.892224, 15.666667)">
                        <mask id="mask-3" fill="white">
                            <use xlink:href="#path-2"></use>
                        </mask>
                        <g id="icon/action/settings_24px" fill-rule="nonzero"></g>
                        <g id="Group" mask="url(#mask-3)">
                            <g transform="translate(-1.892224, -1.666667)" id="↳-Color">
                                <rect id="Rectangle" fill="#000000" x="0" y="0" width="20" height="20"></rect>
                            </g>
                        </g>
                    </g>
                </g>
            </g>
        </g>
    </g>
</svg>